<svg width="154" height="46" viewBox="0 0 154 46" fill="none" xmlns="http://www.w3.org/2000/svg">
<rect x="0.5" y="0.5" width="153" height="44.6296" rx="3.5" fill="black" stroke="#4A4A4A"/>
<path fill-rule="evenodd" clip-rule="evenodd" d="M32.555 16.1345C35.1436 16.3295 40.47 17.0706 41.0667 18.4748C40.7742 21.5534 39.7241 28.4796 37.8638 31.5554C35.5384 35.4002 31.7213 38.7852 25.6666 38.7852C19.6119 38.7852 15.7949 35.4002 13.4695 31.5554C11.6092 28.4796 10.5591 21.5534 10.2666 18.4748C10.8633 17.0706 16.1897 16.3295 18.7783 16.1345C19.027 15.438 19.8489 13.4431 21.1476 11.036C22.4462 8.62881 24.131 7.98523 25.6666 7.98523C27.2023 7.98523 28.887 8.62881 30.1857 11.036C31.4844 13.4431 32.3063 15.438 32.555 16.1345ZM25.6666 10.6181C26.588 10.6181 27.5971 11.8718 27.992 12.5822C28.3079 13.1506 29.1327 15.0201 29.4837 15.8837H21.8496C22.2006 15.0201 23.0254 13.1506 23.3413 12.5822C23.7362 11.8718 24.7453 10.6181 25.6666 10.6181Z" fill="url(#paint0_linear)"/>
<path d="M121.181 17.2874C121.001 17.4748 120.908 17.7008 120.908 17.9654C120.908 18.23 121.001 18.4588 121.181 18.6517C121.364 18.8446 121.588 18.9411 121.854 18.9411C122.112 18.9411 122.331 18.8446 122.513 18.6517C122.693 18.4588 122.785 18.23 122.785 17.9654C122.785 17.7008 122.693 17.4748 122.513 17.2874C122.331 17.0999 122.112 17.0062 121.854 17.0062C121.588 17.0062 121.364 17.0999 121.181 17.2874Z" fill="white"/>
<path fill-rule="evenodd" clip-rule="evenodd" d="M118.791 25.7545H118.683C118.371 25.7545 118.076 25.7242 117.793 25.6635C117.51 25.6029 117.255 25.4789 117.03 25.2914C116.72 25.6001 116.33 25.7545 115.86 25.7545H109.417C108.83 25.7545 108.392 25.5781 108.104 25.2253C107.814 24.8725 107.671 24.3708 107.671 23.7204V21.8186H108.889V23.5219C108.889 23.8747 108.96 24.12 109.105 24.2578C109.248 24.3956 109.481 24.4646 109.801 24.4646H115.604C115.935 24.4646 116.149 24.3874 116.245 24.233C116.342 24.0787 116.389 23.843 116.389 23.5219V21.8186H117.639V23.5881C117.639 23.9298 117.749 24.1614 117.969 24.2826C118.188 24.4039 118.425 24.4646 118.683 24.4646L122.144 24.4647C122.529 24.4647 122.777 24.3848 122.889 24.2249C123.002 24.065 123.052 23.8748 123.042 23.6543L121.471 23.6047C120.926 23.5827 120.53 23.3953 120.285 23.0425C120.039 22.6897 119.916 22.2376 119.916 21.6864C119.916 21.3887 119.965 21.1145 120.067 20.8595C120.17 20.6059 120.311 20.3854 120.493 20.198C120.675 20.0106 120.891 19.8645 121.142 19.7598C121.393 19.655 121.674 19.6027 121.984 19.6027C122.346 19.6027 122.668 19.6812 122.945 19.8342C123.223 19.9885 123.456 20.1897 123.643 20.4378C123.83 20.6859 123.97 20.967 124.067 21.2812C124.164 21.5954 124.212 21.9179 124.212 22.2487V23.1913C124.212 23.5331 124.174 23.8583 124.1 24.167C124.023 24.4771 123.909 24.7486 123.755 24.9856C123.6 25.224 123.404 25.4101 123.17 25.5479C122.935 25.6857 122.657 25.7546 122.336 25.7546H118.81L118.791 25.7545ZM122.953 21.8434C123.012 22.0253 123.042 22.2058 123.042 22.3809L121.727 22.3313C121.556 22.3216 121.383 22.2789 121.206 22.2072C121.03 22.1356 120.942 21.984 120.942 21.7524C120.942 21.5099 121.009 21.3059 121.142 21.1406C121.276 20.9752 121.512 20.8925 121.854 20.8925C122.037 20.8925 122.2 20.9366 122.344 21.0248C122.489 21.1144 122.612 21.226 122.713 21.3638C122.815 21.5016 122.895 21.6615 122.953 21.8434Z" fill="white"/>
<path d="M103.342 25.7542H102.172V17.7004H103.342V25.7542Z" fill="white"/>
<path d="M98.9826 18.8255C98.7996 19.0129 98.7101 19.2389 98.7101 19.5035C98.7101 19.7681 98.7996 19.9969 98.9826 20.1898C99.1643 20.3827 99.3887 20.4792 99.6558 20.4792C99.9123 20.4792 100.13 20.3827 100.313 20.1898C100.495 19.9969 100.586 19.7681 100.586 19.5035C100.586 19.2389 100.495 19.0129 100.313 18.8255C100.13 18.638 99.9123 18.5443 99.6558 18.5443C99.3887 18.5443 99.1643 18.638 98.9826 18.8255Z" fill="white"/>
<path d="M98.4136 27.1605C98.045 27.4802 97.4866 27.64 96.7386 27.64H95.9692L96.1936 28.93L97.1874 28.9465C97.6576 28.9562 98.0824 28.8748 98.4604 28.6984C98.8411 28.522 99.1616 28.2795 99.4234 27.9708C99.6839 27.6621 99.8883 27.2983 100.033 26.8793C100.177 26.4604 100.249 26.0083 100.249 25.5232V21.8188H98.9666V25.8375C98.9666 26.3997 98.7823 26.8407 98.4136 27.1605Z" fill="white"/>
<path d="M112.767 19.9663C112.767 19.7348 112.845 19.5363 113 19.371C113.154 19.2056 113.345 19.1229 113.569 19.1229C113.794 19.1229 113.982 19.2056 114.137 19.371C114.293 19.5363 114.37 19.7348 114.37 19.9663C114.37 20.1868 114.293 20.377 114.137 20.5369C113.982 20.6967 113.794 20.7767 113.569 20.7767C113.345 20.7767 113.154 20.6967 113 20.5369C112.845 20.377 112.767 20.1868 112.767 19.9663Z" fill="white"/>
<path d="M110.587 19.9663C110.587 19.7348 110.666 19.5363 110.819 19.371C110.974 19.2056 111.17 19.1229 111.404 19.1229C111.619 19.1229 111.802 19.2056 111.958 19.371C112.113 19.5363 112.19 19.7348 112.19 19.9663C112.19 20.1868 112.113 20.377 111.958 20.5369C111.802 20.6967 111.619 20.7767 111.404 20.7767C111.17 20.7767 110.974 20.6967 110.819 20.5369C110.666 20.377 110.587 20.1868 110.587 19.9663Z" fill="white"/>
<path d="M128.155 25.7547C127.534 25.7547 127.044 25.5921 126.68 25.2669C126.317 24.9416 126.134 24.4138 126.134 23.6875V17.701H127.352V23.4726C127.352 23.8901 127.436 24.1616 127.602 24.2829C127.768 24.4042 127.995 24.4634 128.283 24.4634L130.19 24.464C130.392 24.464 130.556 24.4406 130.679 24.3896C130.802 24.34 130.895 24.2738 130.96 24.1925C131.024 24.1084 131.064 24.0092 131.08 23.8935C131.096 23.7777 131.104 23.6537 131.104 23.5227V21.8194H132.354V23.7198C132.354 24.3372 132.207 24.832 131.913 25.1999C131.618 25.5706 131.168 25.7553 130.558 25.7553H128.571C128.558 25.7553 128.545 25.7551 128.532 25.7547H128.155Z" fill="white"/>
<path d="M130.15 27.3511C129.995 27.5096 129.917 27.7011 129.917 27.9203C129.917 28.1532 129.995 28.3502 130.15 28.517C130.305 28.6824 130.5 28.7637 130.735 28.7637C130.947 28.7637 131.133 28.6824 131.288 28.517C131.443 28.3502 131.52 28.1532 131.52 27.9203C131.52 27.7011 131.443 27.5096 131.288 27.3511C131.133 27.1912 130.947 27.1099 130.735 27.1099C130.5 27.1099 130.305 27.1912 130.15 27.3511Z" fill="white"/>
<path d="M128.098 27.3511C127.943 27.5096 127.865 27.7011 127.865 27.9203C127.865 28.1532 127.943 28.3502 128.098 28.517C128.253 28.6824 128.443 28.7637 128.666 28.7637C128.891 28.7637 129.081 28.6824 129.236 28.517C129.39 28.3502 129.468 28.1532 129.468 27.9203C129.468 27.7011 129.39 27.5096 129.236 27.3511C129.081 27.1912 128.891 27.1099 128.666 27.1099C128.443 27.1099 128.253 27.1912 128.098 27.3511Z" fill="white"/>
<path d="M134.526 27.1598C134.893 26.8414 135.079 26.3991 135.079 25.8368V21.8196H136.361V25.524C136.361 26.0077 136.287 26.4597 136.145 26.8787C136 27.299 135.796 27.6614 135.535 27.9701C135.274 28.2788 134.952 28.5186 134.572 28.6895C134.194 28.8604 133.77 28.9458 133.299 28.9458L132.754 28.9293L132.546 27.6408H132.851C133.599 27.6408 134.157 27.4795 134.526 27.1598Z" fill="white"/>
<path d="M137.964 24.4814L138.123 25.7548H141.924C142.521 25.7548 142.973 25.595 143.277 25.2739C143.581 24.9555 143.733 24.5751 143.733 24.1341C143.733 23.8902 143.683 23.6435 143.581 23.39C143.481 23.1364 143.327 22.8993 143.124 22.6788L140.399 19.6856L139.583 20.5455L142.324 23.5388C142.462 23.6931 142.533 23.853 142.533 24.0184C142.533 24.1397 142.485 24.2472 142.387 24.3409C142.291 24.4346 142.148 24.4814 141.954 24.4814H137.964Z" fill="white"/>
<path d="M61.6562 23.9844C61.6562 25.3624 62.7745 26.4807 64.1525 26.4807C65.5335 26.4807 66.6518 25.3624 66.6487 23.9844V11.6223C66.6487 10.2443 65.5305 9.12598 64.1525 9.12598C62.7745 9.12598 61.6562 10.2443 61.6562 11.6223V23.9844Z" fill="white"/>
<path d="M81.5439 24.0303H86.5058C87.8716 24.0303 88.9807 25.1363 88.9777 26.5051C88.9777 27.8709 87.8686 28.98 86.5028 28.98H80.2972C78.2379 28.98 76.5697 27.3118 76.5697 25.2524V14.088C76.5697 12.713 77.6849 11.6008 79.0568 11.6008C80.4317 11.6008 81.5439 12.7161 81.5439 14.088V24.0303Z" fill="white"/>
<path d="M54.2193 16.5323C54.2193 15.1573 55.3346 14.0452 56.7064 14.0452C58.0783 14.0452 59.1935 15.1573 59.1905 16.5323V25.2524C59.1905 27.3118 57.5222 28.98 55.4629 28.98H49.2451C47.8794 28.98 46.7703 27.8709 46.7703 26.5051C46.7703 25.1394 47.8794 24.0303 49.2451 24.0303H54.2193V16.5323Z" fill="white"/>
<path d="M71.6077 18.998C70.2358 18.998 69.1206 20.1102 69.1206 21.4851V28.9831H64.1464C62.7806 28.9831 61.6715 30.0922 61.6715 31.4579C61.6715 32.8237 62.7806 33.9328 64.1464 33.9328H70.3641C72.4235 33.9328 74.0917 32.2646 74.0917 30.2052V21.4851C74.0917 20.1102 72.9796 18.998 71.6077 18.998Z" fill="white"/>
<path d="M71.6077 16.5751C72.9981 16.5751 74.1253 15.4479 74.1253 14.0574C74.1253 12.667 72.9981 11.5398 71.6077 11.5398C70.2172 11.5398 69.09 12.667 69.09 14.0574C69.09 15.4479 70.2172 16.5751 71.6077 16.5751Z" fill="white"/>
<path d="M81.608 33.9114C81.608 35.3019 80.4808 36.4291 79.0904 36.4291C77.6999 36.4291 76.5727 35.3019 76.5727 33.9114C76.5727 32.521 77.6999 31.3938 79.0904 31.3938C80.4808 31.3938 81.608 32.521 81.608 33.9114Z" fill="white"/>
<defs>
<linearGradient id="paint0_linear" x1="25.6666" y1="7.98523" x2="25.6666" y2="38.7852" gradientUnits="userSpaceOnUse">
<stop stop-color="#8FC345"/>
<stop offset="1" stop-color="#118F4E"/>
</linearGradient>
</defs>
</svg>
