<svg width="199" height="52" viewBox="0 0 199 52" fill="none" xmlns="http://www.w3.org/2000/svg">
<path fill-rule="evenodd" clip-rule="evenodd" d="M163.889 18.7778C163.038 18.7778 162.426 19.3816 162.426 20.2222V30.3333C162.426 32.3019 161.494 33.2222 159.5 33.2222H146.334V22.3889C146.334 16.2713 141.557 11.5556 135.361 11.5556H125.852C124.967 11.5556 123.46 11.5797 122.926 12.2778L120 16.6111C119.437 17.3466 119.798 18.7778 120.732 18.7778H135.361C137.356 18.7778 139.019 20.4201 139.019 22.3889V33.2222H108.297C107.445 33.2222 106.834 33.8255 106.834 34.6667V39C106.834 39.8415 107.445 40.4444 108.297 40.4444H114.149C114.149 42.4133 111.754 44.7778 109.76 44.7778H96.5932C94.5994 44.7778 93.6673 43.8577 93.6673 41.8889V27.4444C93.6673 26.6041 93.0557 26 92.2043 26H87.8155C86.9641 26 86.3525 26.6041 86.3525 27.4444V41.8889C86.3525 48.3889 90.0099 52 96.5932 52H109.76C115.956 52 121.463 46.5621 121.463 40.4444H144.871C145.721 40.4444 146.334 39.8389 146.334 39V37.5556L147.93 39.5622C148.464 40.2601 149.105 40.4444 149.991 40.4444H159.5C165.696 40.4444 169.741 36.4509 169.741 30.3333V20.2222C169.741 19.3816 169.129 18.7778 168.278 18.7778H163.889ZM153.648 44.7778C152.796 44.7778 152.185 45.381 152.185 46.2222V50.5556C152.185 51.397 152.796 52 153.648 52H165.352C166.204 52 166.815 51.397 166.815 50.5556V46.2222C166.815 45.381 166.204 44.7778 165.352 44.7778H153.648ZM127.315 44.7778C126.463 44.7778 125.852 45.381 125.852 46.2222V50.5556C125.852 51.397 126.463 52 127.315 52H132.436C133.288 52 133.899 51.397 133.899 50.5556V46.2222C133.899 45.381 133.288 44.7778 132.436 44.7778H127.315ZM175.593 11.5556C174.742 11.5556 174.13 12.1594 174.13 13V17.3333C174.13 18.1737 174.742 18.7778 175.593 18.7778H188.759C190.754 18.7778 191.685 19.6978 191.685 21.6667V30.3333C191.685 32.3019 190.754 33.2222 188.759 33.2222H175.593C174.742 33.2222 174.13 33.8258 174.13 34.6667V39C174.13 39.8406 174.742 40.4444 175.593 40.4444H188.759C194.955 40.4444 199 36.4509 199 30.3333V21.6667C199 15.5491 194.955 11.5556 188.759 11.5556H175.593ZM62.2138 11.5556L69.6008 2.16015C70.3213 1.3 69.7018 0 68.5711 0H62.9509C62.0559 0 61.2071 0.394453 60.6365 1.07562L48.3157 16.6111C47.4768 17.6129 47.7305 18.7778 49.0472 18.7778H65.8711C70.058 18.7778 73.1859 21.8661 73.1859 26V33.2222H43.9268C42.0502 33.2222 41.0009 32.2766 41.0009 30.3333V7.22222C41.0009 6.38189 40.3891 5.77778 39.538 5.77778H35.1491C34.2977 5.77778 33.6861 6.38189 33.6861 7.22222V30.3333C33.6861 36.8333 38.8065 40.4444 45.3898 40.4444H79.0377C79.8877 40.4444 80.5007 39.8389 80.5007 39V26C80.5007 17.7171 74.2599 11.5556 65.8711 11.5556H62.2138ZM23.4455 5.77778C22.5944 5.77778 21.9825 6.38189 21.9825 7.22222V30.3333C21.9825 32.3024 21.0509 33.2222 19.0566 33.2222H2.96409C2.1127 33.2222 1.50114 33.8263 1.50114 34.6667V39C1.50114 39.8409 2.1127 40.4444 2.96409 40.4444H19.0566C25.6399 40.4444 29.2973 36.8333 29.2973 30.3333V7.22222C29.2973 6.38189 28.6857 5.77778 27.8343 5.77778H23.4455ZM5.62341 27.0526L0.0381831 7.22222C-0.191396 6.41751 0.654402 5.77778 1.50114 5.77778H5.39031C6.16779 5.77778 7.01797 6.11081 7.22893 6.85001L13.229 26.9142C13.4569 27.7129 12.939 28.3274 12.0987 28.3274H7.32881C6.53503 28.3274 5.83844 27.8065 5.62341 27.0526Z" fill="white"/>
</svg>
